<svg xmlns="http://www.w3.org/2000/svg" width="580" height="373.116" viewBox="0 0 153.458 98.72">
  <path d="M78.737 0c-6.226-.002-12.46.092-14.047.282-1.31.157-3.666.709-5.238 1.226-8.428 2.777-14.647 9.445-17.069 18.3l-.696 2.545-.086 19.539c-.076 17.237-.037 19.687.33 20.795.794 2.388 2.5 4.038 4.831 4.67 1.002.273 7.624.332 32.348.291l31.089-.051c4.966-.033 6.255-2.334 6.35-6.338l.084-16.94c.09-18.219-.04-21.049-1.152-24.884-.692-2.387-2.302-5.826-3.641-7.777-1.179-1.718-4.27-4.89-6.116-6.278C102.234 2.755 97.4.86 92.736.289 91.18.099 84.963.002 78.737 0zM69.19 5.42h19.844V7.27H69.19zm-10.154 5.23h6.643s.738.115 1.058.45c.288.3.278.797.278.797v21.204s-.241.729-.651 1.139c-.543.542-1.65.601-1.65.601h-16.3s-.873-.156-1.332-.614c-.454-.455-.614-1.315-.614-1.315v-9.694c1.357-6.667 5.51-10.889 12.568-12.567zm33.012 0h6.643c7.06 1.679 11.211 5.9 12.568 12.568v9.694s-.16.86-.614 1.315c-.459.458-1.331.614-1.331.614h-16.3s-1.108-.059-1.65-.601c-.41-.41-.652-1.14-.652-1.14V11.898s-.01-.497.278-.797c.32-.335 1.058-.45 1.058-.45zm-17.634.108h8.483a2.933 2.933 0 0 1 2.94 2.94v13.018a2.933 2.933 0 0 1-2.94 2.94h-8.483a2.933 2.933 0 0 1-2.94-2.94V13.697a2.933 2.933 0 0 1 2.94-2.94zm29.747 36.414c.568.01 1.153.133 1.732.389 3.411 1.51 3.75 6.124.582 7.927-2.93 1.667-6.394-.149-6.671-3.496-.23-2.766 1.897-4.863 4.357-4.82zm-51.085.03c1.458.018 2.916.738 3.784 2.282 1.225 2.18.229 5.31-1.986 6.235-3.224 1.347-6.733-1.132-6.354-4.49.292-2.584 2.424-4.055 4.556-4.028zm8.19 9.715a2.5 2.5 0 1 1 0 5 2.5 2.5 0 0 1 0-5zm33.124 0a2.5 2.5 0 1 1 0 5 2.5 2.5 0 0 1 0-5z" fill="#d1daf4"/>
  <path d="M77.06 77.717H82.6M76.2 84h5.542" fill="none" stroke="#d1daf4"/>
  <path d="M1.323 81.506v-3.458H.66c-.532 0-.661-.132-.661-.673 0-.667.02-.673 1.918-.596 1.716.07 1.918.134 1.918.607 0 .345-.204.558-.587.613-.567.08-.59.2-.662 3.44-.071 3.253-.092 3.358-.669 3.44-.591.084-.595.061-.595-3.373zM6.97 77.023c-.222-.006-.488.002-.82.02l-1.52.079-.074 3.558c-.04 1.958-.015 3.714.058 3.903.073.19.433.344.801.344.643 0 .67-.066.67-1.588 0-2.07.497-2.096 1.197-.065.45 1.307.625 1.533 1.25 1.605.4.046.728.026.728-.043 0-.07-.257-.799-.57-1.62-.545-1.423-.552-1.535-.133-2.413.634-1.329.558-2.395-.224-3.177-.434-.434-.698-.584-1.363-.603zm-.47 1.053c.053.002.113.01.18.02.505.071.596.246.596 1.143 0 .896-.091 1.07-.595 1.142-.544.077-.596-.02-.596-1.142 0-.982.04-1.18.414-1.163zM11.268 76.857l-.727 3.572c-.4 1.965-.732 3.78-.739 4.035-.008.316.19.463.62.463.674 0 .955-.436.955-1.477 0-.551.124-.64.903-.64.847 0 .913.066 1.081 1.059.151.893.279 1.058.817 1.058.819 0 .813-.257-.099-4.63l-.718-3.44h-1.046zm.963 1.82c.119-.022.392.836.545 1.818.142.905.101.993-.454.993-.575 0-.597-.065-.392-1.125.12-.618.23-1.303.246-1.521.008-.108.027-.16.055-.165zM15.734 84.602c-.077-.2-.106-2.023-.065-4.053l.074-3.692.938-.079.938-.079.771 2.413c.425 1.327.879 2.48 1.01 2.56.137.085.197-.906.142-2.334l-.095-2.48h1.323V84.794l-.83.08c-.819.08-.84.05-1.663-2.224-1.26-3.482-1.376-3.527-1.288-.502.074 2.57.06 2.648-.52 2.73-.328.047-.659-.078-.735-.277zM22.575 84.612c-.641-.31-1.29-1.614-1.021-2.05.296-.48.855-.31 1.319.397.607.926 1.569.795 1.686-.23.103-.9-.346-1.506-1.117-1.506-1.418 0-2.229-1.492-1.74-3.198.31-1.082.637-1.291 2.025-1.296.882-.003 1.216.137 1.654.693.301.383.548.86.548 1.058 0 .575-1.058.42-1.594-.234-.397-.483-.58-.54-.969-.302-.284.174-.48.604-.48 1.054 0 .674.114.779.992.922 1.4.227 2.051.903 2.051 2.125 0 2.27-1.536 3.446-3.354 2.567zM27.252 80.826v-4.101h1.323v8.202h-1.323zM30.88 84.762c-.104-.103-.188-1.656-.188-3.451 0-3.087-.029-3.263-.53-3.263-.39 0-.529-.177-.529-.673 0-.667.02-.673 1.919-.596 1.715.07 1.918.134 1.918.607 0 .345-.204.558-.588.613-.567.08-.59.2-.661 3.44-.07 3.148-.108 3.36-.614 3.433-.297.042-.625-.007-.728-.11zM36.933 76.857l-.727 3.572c-.4 1.965-.732 3.78-.74 4.035-.008.316.19.463.621.463.673 0 .954-.436.954-1.477 0-.551.125-.64.903-.64.847 0 .914.066 1.082 1.059.15.893.278 1.058.817 1.058.818 0 .813-.257-.1-4.63l-.717-3.44h-1.047zm.96 1.826c.118-.025.391.792.578 1.812.17.923.137.993-.456.993-.608 0-.628-.053-.42-1.125.12-.618.23-1.303.246-1.521.007-.103.026-.154.053-.16zM41.275 80.826v-4.101h1.323v6.879h1.058c.953 0 1.059.066 1.059.661 0 .638-.062.662-1.72.662h-1.72zM45.508 80.826v-4.101h1.323v6.879h1.059c.952 0 1.058.066 1.058.661 0 .638-.062.662-1.72.662h-1.72zM49.742 80.826v-4.101h1.323v8.202h-1.323zM53.602 76.857l-.727 3.572c-.4 1.965-.732 3.78-.74 4.035-.008.316.19.463.621.463.673 0 .954-.436.954-1.477 0-.551.125-.64.903-.64.847 0 .914.066 1.082 1.059.15.893.278 1.058.817 1.058.818 0 .813-.257-.1-4.63l-.717-3.44h-1.047zm.962 1.82c.119-.022.392.836.546 1.818.141.905.1.993-.455.993-.574 0-.596-.065-.391-1.125.12-.618.23-1.303.246-1.521.007-.108.026-.16.054-.165zM58.067 84.602c-.076-.2-.106-2.023-.065-4.053l.074-3.692.938-.079.939-.079.77 2.413c.425 1.327.879 2.48 1.01 2.56.137.085.197-.906.143-2.334l-.096-2.48h1.323V84.794l-.83.08c-.818.08-.84.05-1.663-2.224-1.26-3.481-1.375-3.527-1.288-.502.075 2.57.06 2.648-.52 2.73-.328.047-.659-.078-.735-.277zM64.904 84.288c-.727-.625-.743-.696-.743-3.462s.016-2.837.743-3.463c.414-.356 1.08-.638 1.506-.638 1.538 0 3.065 2.398 1.654 2.598-.436.062-.663-.097-.853-.595-.275-.724-1.008-.896-1.541-.363-.195.195-.318 1.147-.318 2.46 0 1.315.123 2.267.318 2.461.533.534 1.266.362 1.541-.362.19-.5.417-.657.853-.594 1.427.204-.096 2.597-1.654 2.597-.426 0-1.092-.282-1.506-.639zM69.701 84.583c-.072-.19-.098-1.946-.057-3.903l.074-3.558 1.918-.078c1.899-.077 1.918-.071 1.918.595 0 .632-.082.673-1.323.673-1.293 0-1.323.018-1.323.794 0 .75.06.794 1.059.794.952 0 1.058.066 1.058.661 0 .596-.106.662-1.058.662h-1.059V83.604h1.323c1.235 0 1.323.044 1.323.661 0 .643-.052.662-1.86.662-1.283 0-1.902-.107-1.993-.344zM85.576 84.583c-.072-.19-.098-1.946-.058-3.903l.075-3.558 1.918-.078c1.899-.077 1.918-.071 1.918.595 0 .632-.082.673-1.323.673-1.293 0-1.323.018-1.323.794 0 .75.06.794 1.059.794.952 0 1.058.066 1.058.661 0 .596-.106.662-1.058.662h-1.059V83.604h1.323c1.235 0 1.323.044 1.323.661 0 .643-.052.662-1.86.662-1.283 0-1.902-.107-1.993-.344zM91.702 76.857l-.727 3.572c-.4 1.965-.732 3.78-.74 4.035-.008.316.19.463.621.463.673 0 .954-.436.954-1.477 0-.551.125-.64.903-.64.847 0 .914.066 1.082 1.059.15.893.278 1.058.817 1.058.818 0 .813-.257-.1-4.63l-.717-3.44h-1.047zm.962 1.82c.119-.022.392.836.546 1.818.141.905.1.993-.455.993-.574 0-.596-.065-.391-1.125.12-.618.23-1.303.246-1.521.008-.108.026-.16.054-.165zM96.922 84.612c-.64-.31-1.29-1.614-1.02-2.05.296-.48.855-.31 1.319.397.607.926 1.569.795 1.686-.23.103-.9-.346-1.506-1.117-1.506-1.418 0-2.23-1.492-1.74-3.198.31-1.082.637-1.291 2.025-1.296.882-.003 1.216.137 1.654.693.301.383.548.86.548 1.058 0 .575-1.058.42-1.595-.234-.396-.483-.58-.54-.968-.302-.284.174-.48.604-.48 1.054 0 .674.114.779.992.922 1.399.227 2.051.903 2.051 2.125 0 2.27-1.536 3.446-3.355 2.567zM102.052 84.762c-.103-.103-.187-1.656-.187-3.451 0-3.087-.029-3.263-.53-3.263-.39 0-.529-.177-.529-.673 0-.667.02-.673 1.918-.596 1.716.07 1.919.134 1.919.607 0 .345-.205.558-.588.613-.567.08-.59.2-.661 3.44-.07 3.148-.108 3.36-.614 3.433-.297.042-.625-.007-.728-.11zM108.215 81.506v-3.458h-.662c-.532 0-.661-.132-.661-.673 0-.667.019-.673 1.918-.596 1.716.07 1.918.134 1.918.607 0 .345-.204.558-.587.613-.568.08-.59.2-.662 3.44-.072 3.253-.092 3.358-.67 3.44-.59.084-.594.061-.594-3.373zM111.506 84.583c-.073-.19-.1-1.946-.058-3.903l.074-3.558 1.918-.078c1.9-.077 1.918-.071 1.918.595 0 .632-.082.673-1.323.673-1.293 0-1.322.018-1.322.794 0 .75.058.794 1.058.794.952 0 1.058.066 1.058.661 0 .596-.106.662-1.058.662h-1.058V83.604h1.322c1.235 0 1.323.044 1.323.661 0 .643-.052.662-1.86.662-1.283 0-1.901-.107-1.992-.344zM116.54 84.602c-.076-.2-.106-2.023-.065-4.053l.074-3.692.938-.079.939-.079.77 2.413c.425 1.327.879 2.48 1.01 2.56.137.085.197-.906.143-2.334l-.096-2.48h1.323V84.794l-.83.08c-.818.08-.84.05-1.663-2.224-1.26-3.481-1.375-3.527-1.288-.502.075 2.57.06 2.648-.52 2.73-.328.047-.659-.078-.735-.277zM122.625 84.602c-.076-.2-.105-2.023-.065-4.053l.074-3.692.939-.079.938-.079.771 2.413c.424 1.327.878 2.48 1.01 2.56.136.085.197-.906.142-2.334l-.096-2.48h1.323V84.794l-.83.08c-.818.08-.84.05-1.663-2.224-1.26-3.481-1.375-3.527-1.287-.502.074 2.57.06 2.648-.52 2.73-.328.047-.66-.078-.736-.277zM128.703 84.583c-.072-.19-.098-1.946-.057-3.903l.074-3.558 1.918-.078c1.899-.077 1.918-.071 1.918.595 0 .632-.082.673-1.323.673-1.293 0-1.323.018-1.323.794 0 .75.06.794 1.059.794.952 0 1.058.066 1.058.661 0 .596-.106.662-1.058.662h-1.059V83.604h1.323c1.235 0 1.323.044 1.323.661 0 .643-.052.662-1.86.662-1.283 0-1.901-.107-1.993-.344zM134.493 84.612c-.64-.31-1.29-1.614-1.02-2.05.295-.48.855-.31 1.319.397.606.926 1.568.795 1.686-.23.103-.9-.346-1.506-1.117-1.506-1.418 0-2.23-1.492-1.74-3.198.31-1.082.637-1.291 2.025-1.296.882-.003 1.216.137 1.654.693.301.383.548.86.548 1.058 0 .575-1.059.42-1.595-.234-.396-.483-.58-.54-.968-.302-.284.174-.48.604-.48 1.054 0 .674.113.779.992.922 1.399.227 2.05.903 2.05 2.125 0 2.27-1.535 3.447-3.354 2.567zM139.785 84.612c-.64-.31-1.29-1.614-1.02-2.05.295-.48.855-.31 1.318.397.607.926 1.57.795 1.687-.23.103-.9-.346-1.506-1.117-1.506-1.418 0-2.23-1.492-1.74-3.198.31-1.082.636-1.291 2.025-1.296.881-.003 1.216.137 1.653.693.302.383.549.86.549 1.058 0 .575-1.059.42-1.595-.234-.397-.483-.58-.54-.969-.302-.283.174-.48.604-.48 1.054 0 .674.114.779.992.922 1.4.227 2.052.903 2.052 2.125 0 2.27-1.537 3.447-3.355 2.567zM144.05 84.583c-.073-.19-.1-1.946-.059-3.903l.075-3.558 1.918-.078c1.899-.077 1.918-.071 1.918.595 0 .632-.082.673-1.323.673-1.293 0-1.323.018-1.323.794 0 .75.06.794 1.059.794.952 0 1.058.066 1.058.661 0 .596-.106.662-1.058.662h-1.059V83.604h1.323c1.235 0 1.323.044 1.323.661 0 .643-.052.662-1.86.662-1.283 0-1.902-.107-1.993-.344zM149.076 84.583c-.072-.19-.098-1.946-.057-3.903l.074-3.558 1.918-.078c1.899-.077 1.918-.071 1.918.595 0 .632-.082.673-1.323.673-1.293 0-1.323.018-1.323.794 0 .75.06.794 1.059.794.952 0 1.058.066 1.058.661 0 .596-.106.662-1.058.662h-1.059V83.604h1.323c1.235 0 1.323.044 1.323.661 0 .643-.052.662-1.86.662-1.283 0-1.902-.107-1.993-.344zM78.518 78.891c-.579.025-1.014.4-1.238 1.088-.356 1.096-.443 2.363-.19 2.773.286.462 1.078.398 1.723-.14.39-.326.605-.906.724-1.956.154-1.366.12-1.508-.394-1.672a1.81 1.81 0 0 0-.625-.093zm-.135.501a.702.702 0 0 1 .281.055c.291.112.338.394.194 1.18-.104.568-.275 1.173-.38 1.344-.106.17-.371.31-.59.31-.323 0-.364-.235-.218-1.256.164-1.151.35-1.614.713-1.633zM79.77 82.215c.084-.473.241-1.396.348-2.05.187-1.143.235-1.195 1.181-1.273.752-.063.986.015.986.33 0 .283-.25.413-.793.413-.53 0-.794.133-.794.397 0 .226.238.397.551.397.722 0 .517.634-.241.746-.352.052-.575.274-.575.574 0 .685-.275 1.326-.57 1.326-.136 0-.178-.387-.093-.86z" fill="#d1daf4"/>
  <g transform="translate(-25.992 -23.1)" fill="#ed7b17">
    <circle cx="120.382" cy="82.518" r="2.5" fill-rule="evenodd"/>
    <circle cx="87.258" cy="82.518" r="2.5" fill-rule="evenodd"/>
    <path d="M29.88 113.557l-1.085.08-1.084.079-.717 3.439c-.395 1.891-.722 3.707-.728 4.035-.007.463.14.595.66.595.68 0 .749-.094 1.033-1.389.13-.595.303-.728.948-.728.658 0 .789.107.789.64 0 1.106.278 1.477 1.104 1.477.621 0 .756-.096.649-.463-.074-.255-.458-2.106-.852-4.114zm-1.033 2.035c.016.007.028.042.035.108.024.218.14.903.26 1.521.194 1 .163 1.125-.275 1.125-.37 0-.486-.183-.463-.728.035-.804.331-2.076.443-2.026zM34.264 113.886c-.138.003-.288.01-.451.017l-1.604.077-.073 3.903-.073 3.902h1.739c1.493 0 1.83-.091 2.388-.65.607-.606.65-.83.65-3.42 0-2.692-.02-2.786-.712-3.33-.508-.4-.899-.518-1.864-.499zm-.864 1.285h.74c1.151 0 1.376.433 1.376 2.645 0 1.211-.126 2.138-.317 2.329-.175.174-.65.318-1.058.318H33.4v-2.647zM39.084 121.455c-.29-.803-1.604-7.63-1.49-7.745.07-.07.403-.127.74-.127.684 0 .673-.03 1.272 3.543.217 1.294.446 2.404.509 2.467.126.126.276-.546.69-3.1.463-2.847.488-2.91 1.155-2.91.337 0 .675.063.751.14.148.147-1.258 7.396-1.516 7.814-.228.369-1.972.3-2.11-.082zM46.022 113.67c-.948-.033-1.949.31-2.313.99-.374.7-.306 5.582.084 6.086.178.23.56.553.851.72 1.021.585 2.483.261 3.233-.716.498-.648.447-5.573-.065-6.304-.348-.496-1.053-.75-1.79-.775zm-.187 1.236c.751 0 1.058.807 1.058 2.778 0 .965-.123 1.985-.273 2.266-.151.282-.504.513-.785.513-.751 0-1.058-.807-1.058-2.779 0-1.971.307-2.778 1.058-2.778zM49.784 121.012c-.74-.74-.774-.875-.774-3.163 0-2.65.275-3.536 1.233-3.972 1.086-.495 1.934-.343 2.776.5.895.895.906 1.678.024 1.804-.434.062-.661-.097-.85-.595-.276-.724-1.009-.896-1.542-.362-.394.393-.427 4.01-.044 4.727.396.74 1.276.646 1.585-.168.19-.498.417-.658.85-.596.883.126.872.91-.023 1.805-1.06 1.06-2.188 1.067-3.235.02zM57.016 113.615a3.474 3.474 0 0 0-.365.015l-.894.086-.717 3.44c-.395 1.891-.722 3.715-.728 4.052-.008.514.107.6.717.529.608-.07.75-.236.86-1.01.117-.818.232-.936.992-1.009.762-.073.86-.008.86.574 0 1.117.276 1.494 1.092 1.494.664 0 .752-.083.63-.596-.076-.327-.438-2.08-.802-3.894-.365-1.814-.766-3.4-.89-3.524-.094-.094-.4-.153-.755-.157zm-.123 1.977c.016.007.028.042.035.108.024.218.14.903.26 1.521.194 1 .163 1.125-.276 1.125-.37 0-.485-.183-.462-.728.035-.804.33-2.076.443-2.026zM61.104 121.62c-.103-.103-.187-1.648-.187-3.432 0-3.164-.015-3.247-.596-3.33-.39-.055-.595-.266-.595-.613 0-.482.176-.53 1.984-.53s1.985.048 1.985.53c0 .345-.205.558-.588.612-.567.081-.59.2-.661 3.44-.07 3.149-.108 3.36-.614 3.433-.297.043-.625-.007-.728-.11zM64.356 117.817v-3.97h1.985c1.94 0 1.984.016 1.984.662 0 .618-.088.662-1.323.662-1.294 0-1.323.017-1.323.793 0 .75.059.794 1.058.794.953 0 1.059.066 1.059.662 0 .595-.106.661-1.059.661H65.68V120.462h1.323c1.235 0 1.323.044 1.323.662 0 .647-.044.661-1.984.661h-1.985zM69.75 121.118c-.794-.794-.769-1.808.048-1.924.377-.054.646.137.863.613.44.965 1.466.822 1.586-.22.109-.953-.356-1.506-1.268-1.506-1.117 0-1.732-.88-1.708-2.445.015-.978.151-1.427.514-1.692.522-.382 2.442-.486 2.932-.158.347.231.9 1.234.9 1.632 0 .526-1.253.29-1.663-.313-.33-.486-.494-.542-.892-.304-.269.16-.525.596-.57.969-.083.694-.015.742 1.585 1.096 1.143.254 1.54.847 1.54 2.304 0 1.045-.134 1.45-.65 1.966-.891.891-2.315.884-3.217-.018zM76.262 117.817v-3.97h1.985c1.94 0 1.984.016 1.984.662 0 .618-.088.662-1.323.662h-1.323v.926c0 .904.026.926 1.059.926.952 0 1.058.066 1.058.661 0 .596-.106.662-1.058.662h-1.059v1.72c0 1.658-.023 1.72-.661 1.72h-.662zM83.858 113.67c-.948-.033-1.95.31-2.314.99-.374.7-.306 5.582.085 6.086.177.23.56.553.85.72 1.021.585 2.483.261 3.234-.716.497-.648.447-5.573-.065-6.304-.348-.496-1.053-.75-1.79-.775zm-.187 1.236c.75 0 1.058.807 1.058 2.778 0 .965-.123 1.985-.274 2.266-.15.282-.504.513-.784.513-.752 0-1.059-.807-1.059-2.779 0-1.971.307-2.778 1.059-2.778zM89.473 113.883a12.52 12.52 0 0 0-.853.019l-1.642.078-.073 3.903-.073 3.902h1.601v-1.587c0-1.152.098-1.588.355-1.588.204 0 .56.675.836 1.588.446 1.472.537 1.587 1.26 1.587.513 0 .74-.113.659-.33-.942-2.553-1.033-3.096-.616-3.691.61-.87.542-2.733-.125-3.4-.338-.337-.628-.465-1.329-.48zm-.626 1.052c.053.002.113.009.181.019.504.071.596.247.596 1.143s-.092 1.07-.596 1.143c-.544.077-.595-.021-.595-1.143 0-.981.04-1.18.414-1.162zM94.254 117.817v-3.97h1.984c1.94 0 1.985.016 1.985.662 0 .618-.088.662-1.323.662-1.294 0-1.323.017-1.323.793 0 .75.059.794 1.058.794.953 0 1.059.066 1.059.662 0 .595-.106.661-1.059.661h-1.058V120.462H96.9c1.235 0 1.323.044 1.323.662 0 .647-.044.661-1.985.661h-1.984zM99.281 117.817v-3.97h1.985c1.94 0 1.984.016 1.984.662 0 .618-.088.662-1.323.662h-1.323v.926c0 .904.025.926 1.058.926.953 0 1.059.066 1.059.661 0 .596-.106.662-1.059.662h-1.058v1.72c0 1.658-.024 1.72-.661 1.72h-.662zM104.044 117.817v-3.97h1.984c1.94 0 1.984.016 1.984.662 0 .618-.088.662-1.323.662h-1.322v.926c0 .904.025.926 1.058.926.952 0 1.058.066 1.058.661 0 .596-.106.662-1.058.662h-1.058v1.72c0 1.658-.024 1.72-.662 1.72h-.661zM109.07 117.684v-4.1h1.324v8.201h-1.323zM112.49 121.012c-.74-.74-.773-.875-.773-3.163 0-2.65.274-3.536 1.232-3.972 1.087-.495 1.934-.343 2.776.5.896.895.906 1.678.024 1.804-.433.062-.661-.097-.85-.595-.276-.724-1.008-.896-1.542-.362-.394.393-.427 4.01-.044 4.727.396.74 1.276.646 1.586-.168.189-.498.417-.658.85-.596.882.126.872.91-.024 1.805-1.06 1.06-2.188 1.067-3.235.02zM117.537 117.684v-4.1h1.323v8.201h-1.323zM120.183 117.817v-3.97h1.985c1.94 0 1.984.016 1.984.662 0 .618-.088.662-1.323.662-1.293 0-1.323.017-1.323.793 0 .75.059.794 1.058.794.953 0 1.059.066 1.059.662 0 .595-.106.661-1.059.661h-1.058V120.462h1.323c1.235 0 1.323.044 1.323.662 0 .647-.044.661-1.984.661h-1.985zM125.21 117.684v-4.1h2.074l.716 2.182c.393 1.2.805 2.282.915 2.402.11.12.138-.871.062-2.204l-.138-2.423.765.087.766.088V121.654h-.89c-.88 0-.902-.031-1.72-2.296-.457-1.262-.903-2.367-.992-2.455-.089-.088-.103.975-.03 2.361l.132 2.521h-1.66zM132.277 121.62c-.103-.103-.188-1.648-.188-3.432 0-3.164-.014-3.247-.595-3.33-.39-.055-.595-.266-.595-.613 0-.482.176-.53 1.984-.53s1.985.048 1.985.53c0 .345-.205.558-.588.612-.567.081-.59.2-.661 3.44-.07 3.149-.108 3.36-.614 3.433-.297.043-.625-.007-.728-.11zM137.381 117.684v-4.1h1.323v6.879h1.058c.953 0 1.059.066 1.059.66 0 .639-.062.662-1.72.662h-1.72zM141.614 117.684v-4.1h1.323v8.201h-1.323zM145.034 121.012c-.746-.746-.774-.862-.774-3.286 0-1.381.074-2.705.165-2.94.226-.589 1.492-1.203 2.48-1.203.884 0 2.118.995 2.118 1.708 0 .533-1.148.542-1.588.012a1.033 1.033 0 0 0-1.534-.08c-.443.443-.419 4.206.03 4.82.508.694 1.354.436 1.456-.443.06-.517-.035-.725-.331-.725-.266 0-.414-.238-.414-.662 0-.607.097-.661 1.19-.661h1.19v1.301c0 1.68-.166 2.074-1.076 2.545-1.154.597-2.048.478-2.912-.386zM149.817 117.684v-4.136l.727.084c.697.08.731.152.807 1.737l.078 1.654h2.092v-3.475l.727.084.728.083V121.653l-.728.084-.727.083v-3.474h-2.092l-.078 1.653c-.076 1.585-.11 1.657-.807 1.738l-.727.083zM156.883 121.62c-.103-.103-.187-1.648-.187-3.432 0-3.164-.015-3.247-.596-3.33-.39-.055-.595-.266-.595-.613 0-.482.177-.53 1.984-.53 1.808 0 1.985.048 1.985.53 0 .345-.204.558-.588.612-.567.081-.59.2-.661 3.44-.07 3.149-.107 3.36-.614 3.433-.297.043-.625-.007-.728-.11zM164.615 113.883a12.52 12.52 0 0 0-.854.019l-1.642.078-.072 3.903-.074 3.902h1.601v-1.587c0-1.152.098-1.588.356-1.588.204 0 .559.675.835 1.588.446 1.472.537 1.587 1.261 1.587.513 0 .739-.113.659-.33-.942-2.553-1.033-3.096-.616-3.691.61-.87.541-2.733-.125-3.4-.338-.337-.629-.465-1.33-.48zm-.626 1.052c.053.002.113.009.181.019.504.071.595.247.595 1.143s-.091 1.07-.595 1.143c-.544.077-.595-.021-.595-1.143 0-.981.04-1.18.414-1.162zM169.993 113.615a3.474 3.474 0 0 0-.365.015l-.894.086-.717 3.44c-.395 1.891-.722 3.715-.728 4.052-.008.514.107.6.717.529.609-.07.75-.236.86-1.01.117-.818.232-.936.993-1.009.76-.073.86-.008.86.574 0 1.117.275 1.494 1.091 1.494.665 0 .752-.083.63-.596-.076-.327-.438-2.08-.802-3.894-.365-1.814-.765-3.4-.89-3.524-.094-.094-.4-.153-.755-.157zm-.123 1.977c.016.007.028.042.035.108.024.218.14.903.26 1.521.194 1 .163 1.125-.276 1.125-.37 0-.485-.183-.462-.728.035-.804.331-2.076.443-2.026zM173.364 117.684v-4.1h1.323v8.201h-1.323zM176.01 117.684v-4.1h1.323v6.879h1.059c.952 0 1.058.066 1.058.66 0 .639-.062.662-1.72.662h-1.72z"/>
  </g>
</svg>
